<?xml version="1.0" encoding="UTF-8"?>
<!DOCTYPE svg PUBLIC "-//W3C//DTD SVG 1.1//EN" "http://www.w3.org/Graphics/SVG/1.1/DTD/svg11.dtd">
<!-- Creator: CorelDRAW 2019 (64 Bit) -->
<svg xmlns="http://www.w3.org/2000/svg" xml:space="preserve" width="40.6164mm" height="52.4324mm" version="1.1" style="shape-rendering:geometricPrecision; text-rendering:geometricPrecision; image-rendering:optimizeQuality; fill-rule:evenodd; clip-rule:evenodd"
viewBox="0 0 4054.05 5233.45"
 xmlns:xlink="http://www.w3.org/1999/xlink">
 <defs>
  <style type="text/css">
   <![CDATA[
    .fil0 {fill:#333333}
   ]]>
  </style>
 </defs>
 <g id="Camada_x0020_1">
  <metadata id="CorelCorpID_0Corel-Layer"/>
  <path class="fil0" d="M1257.57 5233.45c780.2,0 1412.91,-627.48 1412.91,-1408.54l-2.51 -1071.74 382.76 -382.78c23.75,11.74 50.1,18.46 77.31,18.77l1.53 0 0.21 0.21c47.19,0 92.25,-20.24 125.46,-52.83 32.98,-32.39 54.57,-77.48 55.14,-127.44l0.02 -1.65 0.2 -0.21c0,-50.15 -20.39,-95.63 -53.35,-128.6 -33.09,-33.1 -78.63,-53.56 -128.78,-53.56l-0.42 0.21 -2.77 0.02c-48.99,0.88 -93.61,21.1 -125.91,53.25 -32.7,32.54 -53.07,77.2 -53.07,126.42l0.21 0.41 0.02 2.68c0.6,32.55 9.91,62.96 25.43,89.18l-304.32 304.34 -0.9 -382.38 641.37 -636.73 229.09 229.13 206.19 -209.06c2.68,1.67 5.51,3.27 8.5,4.84 20.77,10.87 45.17,16.93 79.51,16.93 40.35,0 86.79,-21.06 120.32,-54.6 30.16,-30.16 51.58,-71.15 51.58,-117.29 0,-47.47 -19.24,-90.46 -50.36,-121.57l-0.1 0.1c-31.23,-31.17 -74.18,-50.47 -121.45,-50.47 -45.81,0 -86.35,21.67 -116.34,51.66 -34.1,34.09 -55.59,81.48 -55.59,120.27 0,34.48 4.11,54.96 11.61,70.87l-134.2 136.08 -152.54 -152.57 410.16 -407.19c2.19,1.33 4.45,2.62 6.82,3.88 21.2,11.31 46.12,17.64 80.84,17.64 40.57,0 86.88,-21.02 120.33,-54.48 30.19,-30.19 51.57,-71.24 51.57,-117.43 0,-47.46 -19.24,-90.45 -50.36,-121.56 -31.09,-31.1 -74.08,-50.36 -121.55,-50.36 -45.67,0 -86.18,21.65 -116.19,51.65l-0.21 0c-34.05,34.06 -55.52,81.4 -55.52,120.26 0,34.64 4.15,55.37 11.74,71.45l-1055.59 1047.94 -1.13 -484.8 -116.71 0 710.83 -710.95 -75.95 -75.95 -291.28 291.32 -153.12 -153.15 168.16 -168.2c23.9,12.64 51.1,19.79 79.95,19.79 47.47,0 90.45,-19.25 121.56,-50.36 31.1,-31.11 50.37,-74.09 50.37,-121.56 0,-47.28 -19.29,-90.23 -50.48,-121.45l0.11 -0.1c-31.11,-31.11 -74.09,-50.37 -121.56,-50.37 -47.46,0 -90.45,19.25 -121.56,50.37l0.1 0.1c-31.17,31.22 -50.47,74.17 -50.47,121.45 0,26.88 6.19,52.33 17.19,75l-245.27 245.32 229.08 229.11 -419.54 419.61 -161.81 0 0.58 -385.91 6.83 -7.15 -0.1 -0.09 280.36 -293 0.67 -562.32c25.96,-8.49 49.2,-23 68.06,-41.86 31.11,-31.1 50.36,-74.09 50.36,-121.55 0,-47.33 -19.25,-90.25 -50.36,-121.36l0 -0.21c-31.1,-31.1 -74.09,-50.36 -121.55,-50.36 -47.46,0 -90.45,19.25 -121.55,50.36l0 0.21c-31.11,31.12 -50.37,74.03 -50.37,121.36 0,47.46 19.25,90.45 50.37,121.55l0.2 0c18.83,18.83 41.99,33.31 67.83,41.8l-0.62 519.6 -243.58 254.57 -227.67 -228.11c13.12,-24.24 20.56,-51.96 20.56,-81.4 0,-47.32 -19.25,-90.25 -50.36,-121.36l0 -0.2c-31.1,-31.11 -74.09,-50.37 -121.55,-50.37 -47.28,0 -90.23,19.29 -121.45,50.47l-0.1 -0.1c-31.11,31.1 -50.37,74.1 -50.37,121.56 0,47.46 19.25,90.45 50.36,121.55 31.1,31.11 74.1,50.36 121.56,50.36 26.37,0 51.36,-5.98 73.72,-16.65l235.93 236.4 25.78 25.82 -0.55 366.38 -1.03 0 1.95 997.63 -486.94 -482.21 379.2 -379.35 -773.16 -781.41c10.06,-21.81 15.66,-46.04 15.66,-71.54 0,-47.46 -19.25,-90.45 -50.37,-121.56l-0.1 0.1c-31.22,-31.17 -74.17,-50.47 -121.45,-50.47 -47.46,0 -90.45,19.25 -121.55,50.37l0 0.21c-31.11,31.12 -50.37,74.03 -50.37,121.35 0,47.47 19.25,90.45 50.36,121.56 31.1,31.1 74.1,50.36 121.56,50.36 30.3,0 58.77,-7.85 83.49,-21.61l694.84 702.25 -304.22 304.35 -268.42 -265.8 4.87 -293.88 -107.02 -1.68 -4.36 264.07 -430.23 0.02c-3.51,-41.52 -21.86,-78.89 -49.74,-106.77l0 -0.21c-31.11,-31.11 -74.09,-50.37 -121.56,-50.37 -47.45,0 -90.45,19.25 -121.55,50.37l0.1 0.1c-31.17,31.23 -50.47,74.18 -50.47,121.45 0,47.32 19.32,90.31 50.57,121.54 31.11,31.1 74.03,50.35 121.35,50.35 47.33,0 90.24,-19.24 121.35,-50.35 8.82,-8.82 16.69,-18.57 23.44,-29.1l487.29 -0.02 268.65 266.04 -274.86 274.97c-3.15,-3.73 -6.46,-7.34 -9.91,-10.79 -31.07,-31.07 -74,-50.37 -121.48,-50.37 -47.5,0 -90.48,19.23 -121.58,50.34 -31.11,31.12 -50.36,74.11 -50.36,121.58 0,47.32 19.34,90.32 50.58,121.55 31.12,31.11 74.03,50.36 121.36,50.36 47.31,0 90.23,-19.24 121.33,-50.36l0.21 -0.21c31.06,-31.06 50.3,-73.88 50.37,-121.1l310.46 -310.59 562.96 557.5 2.13 1092.42c0,480.86 -387.48,863.97 -873.58,863.97 -349.08,0 -653.66,-205.95 -791.54,-500.92l-466.03 265.29c230.4,461.67 706.9,780.2 1257.57,780.2zm1257.8 -5107.23l-0.1 0.11c-11.66,-11.67 -27.79,-18.88 -45.59,-18.88 -17.82,0 -33.94,7.22 -45.6,18.88l-0.1 -0.11c-11.59,11.65 -18.77,27.81 -18.77,45.71 0,17.81 7.22,33.94 18.87,45.59l-0.1 0.1c11.65,11.6 27.81,18.77 45.7,18.77 17.81,0 33.94,-7.22 45.59,-18.87 11.66,-11.66 18.87,-27.79 18.87,-45.59 0,-17.91 -7.18,-34.07 -18.77,-45.71zm-1378.19 694.91c-11.53,-11.54 -27.65,-18.68 -45.6,-18.68 -17.81,0 -33.94,7.23 -45.6,18.88l-0.1 -0.1c-11.6,11.65 -18.77,27.81 -18.77,45.7 0,17.82 7.22,33.95 18.87,45.59 11.66,11.66 27.8,18.87 45.6,18.87 17.82,0 33.95,-7.22 45.6,-18.87l0.21 0c11.54,-11.53 18.67,-27.64 18.67,-45.59 0,-17.82 -7.22,-33.95 -18.87,-45.6l0 -0.21zm2044.12 1333.05c-13.38,-13.38 -32.06,-21.67 -52.83,-21.67l0 -0.2 -1.53 0.01c-20.12,0.36 -38.58,8.79 -52.04,22.19 -13.05,12.99 -21.17,30.82 -21.17,50.48l-0.21 0 0.01 1.42c0.38,20.17 9.32,38.65 23.05,52.37 14.24,14.24 33.06,23.15 52.31,23.37l0.9 0 0 -0.2c18.55,0 36.65,-8.35 50.34,-21.78 13.9,-13.65 23.02,-32.08 23.25,-51.91l0.01 -1.01 -0.21 0c0,-20.78 -8.36,-39.55 -21.87,-53.06zm695.7 -747.56c-11.53,-11.54 -27.65,-18.68 -45.59,-18.68 -14.3,0 -28.68,8.46 -40.38,20.18 -14.79,14.78 -24.1,32.19 -24.1,44.32 0,24.02 4.14,28.86 11.1,36.97l3.45 4.05 0.09 -0.08 2.22 2.56 -0.14 0.12c6.92,7.74 12.72,13.85 17.77,16.5 5.33,2.78 14.2,4.34 30,4.34 13.05,0 30.17,-8.92 44.37,-23.13 11.76,-11.76 20.11,-26.42 20.11,-41.33 0,-17.83 -7.23,-33.97 -18.88,-45.62l0 -0.2zm50.77 -502.99c-11.66,-11.66 -27.79,-18.87 -45.6,-18.87 -14.45,0 -28.85,8.41 -40.54,20.07l0.1 0.11c-14.74,14.73 -24.05,32.13 -24.05,44.3 0,24.1 4.42,29.2 11.81,37.69l0 0.22c1.6,1.84 3.68,4.02 5.21,5.96 6.45,7.47 11.98,13.3 17,15.98 5.56,2.95 14.63,4.62 30.47,4.62 13.17,0 30.26,-8.87 44.38,-23 11.76,-11.76 20.1,-26.48 20.1,-41.47 0,-17.82 -7.22,-33.95 -18.87,-45.6zm-895.04 -334.46c-11.66,-11.66 -27.79,-18.87 -45.6,-18.87 -17.82,0 -33.95,7.22 -45.6,18.87l-0.22 0c-11.53,11.54 -18.67,27.66 -18.67,45.6 0,17.82 7.23,33.95 18.88,45.6l-0.1 0.1c11.65,11.6 27.81,18.77 45.7,18.77 17.82,0 33.95,-7.22 45.6,-18.87 11.66,-11.66 18.88,-27.79 18.88,-45.6 0,-17.95 -7.15,-34.07 -18.68,-45.6l-0.21 0zm-1903.49 1870.59c-11.66,-11.65 -27.76,-18.89 -45.53,-18.89 -17.85,0 -33.97,7.22 -45.61,18.86 -11.67,11.66 -18.88,27.8 -18.88,45.62 0,17.95 7.15,34.07 18.68,45.59 11.66,11.66 27.86,18.87 45.82,18.87 17.9,0 34.04,-7.18 45.69,-18.77 11.59,-11.65 18.77,-27.8 18.77,-45.69 0,-17.74 -7.24,-33.9 -18.93,-45.59zm-494.31 -744.31l-0.1 0.1c-11.67,-11.66 -27.79,-18.87 -45.6,-18.87 -17.81,0 -33.94,7.22 -45.6,18.87l-0.21 0c-11.54,11.54 -18.68,27.66 -18.68,45.6 0,17.95 7.14,34.06 18.68,45.58 11.66,11.66 27.87,18.87 45.81,18.87 17.96,0 34.16,-7.23 45.81,-18.87 11.53,-11.53 18.67,-27.63 18.67,-45.58 0,-17.91 -7.19,-34.05 -18.77,-45.7zm1203.7 -941.2l-0.1 0.1c-11.66,-11.67 -27.79,-18.88 -45.59,-18.88 -17.95,0 -34.07,7.14 -45.6,18.68l0 0.21c-11.66,11.66 -18.87,27.79 -18.87,45.6 0,17.82 7.22,33.94 18.87,45.59 11.66,11.66 27.79,18.87 45.6,18.87 17.9,0 34.05,-7.18 45.69,-18.77 11.6,-11.65 18.77,-27.79 18.77,-45.69 0,-17.91 -7.18,-34.06 -18.77,-45.7z"/>
 </g>
</svg>
